<?xml version="1.0" standalone="no"?>
<!DOCTYPE svg PUBLIC "-//W3C//DTD SVG 20010904//EN"
 "http://www.w3.org/TR/2001/REC-SVG-20010904/DTD/svg10.dtd">
<svg version="1.0" xmlns="http://www.w3.org/2000/svg"
 width="1124.000000pt" height="1168.000000pt" viewBox="0 0 1124.000000 1168.000000"
 preserveAspectRatio="xMidYMid meet">

<g transform="translate(0.000000,1168.000000) scale(0.100000,-0.100000)"
fill="#000000" stroke="none">
<path d="M2760 11471 c31 -5 35 -10 38 -39 2 -22 -2 -34 -12 -38 -20 -8 -72
19 -68 35 1 7 -2 10 -8 6 -5 -3 -10 -2 -10 4 0 7 -8 7 -22 1 -13 -5 -35 -11
-50 -14 -19 -4 -25 -11 -21 -24 2 -10 -3 -24 -11 -31 -13 -11 -16 -11 -16 3 0
13 -12 16 -67 17 -56 0 -64 2 -43 10 14 6 41 8 61 5 41 -7 49 -2 42 25 -6 21
-41 26 -71 10 -9 -6 -39 -13 -65 -16 -40 -5 -46 -9 -37 -20 9 -11 5 -18 -20
-34 -18 -10 -48 -22 -66 -26 -19 -3 -34 -10 -34 -14 0 -4 -35 -11 -77 -15 -43
-4 -96 -9 -118 -12 -32 -4 -36 -3 -22 6 26 17 21 32 -10 28 -17 -2 -28 -9 -28
-18 0 -16 -31 -27 -110 -39 -27 -5 -44 -9 -37 -10 6 0 12 -8 12 -16 0 -12 -9
-13 -45 -8 -38 5 -45 3 -45 -11 0 -9 6 -16 14 -16 17 0 29 -27 16 -35 -5 -3
-14 4 -20 15 -13 24 -28 25 -67 6 -15 -7 -62 -30 -103 -50 -63 -30 -71 -37
-52 -42 25 -7 30 -24 7 -24 -8 0 -15 5 -15 10 0 14 -47 12 -56 -2 -4 -6 -2
-14 4 -16 22 -7 12 -17 -18 -18 -42 -2 -92 -24 -87 -39 3 -6 -4 -11 -15 -11
-12 1 -23 -5 -25 -11 -3 -7 3 -13 13 -13 14 0 15 -3 6 -12 -10 -10 -15 -10
-21 1 -7 11 -15 10 -42 -5 -19 -11 -40 -25 -47 -31 -7 -7 -18 -13 -23 -13 -5
0 -9 -7 -9 -15 0 -8 -7 -15 -16 -15 -8 0 -29 -12 -45 -27 -17 -16 -56 -50 -88
-78 -32 -27 -64 -60 -71 -72 -8 -13 -17 -23 -22 -23 -11 0 -78 -71 -78 -82 0
-5 -7 -8 -15 -8 -8 0 -15 -4 -15 -10 0 -15 -33 -50 -47 -50 -7 0 -13 -6 -13
-14 0 -8 -11 -23 -25 -34 -14 -11 -25 -24 -25 -29 0 -5 -12 -22 -27 -39 -43
-48 -87 -106 -108 -141 -11 -18 -23 -33 -27 -33 -4 0 -8 -6 -8 -13 0 -7 -13
-29 -30 -47 -16 -18 -30 -40 -30 -47 0 -7 -4 -13 -9 -13 -16 0 -24 -40 -11
-55 7 -9 8 -15 0 -20 -5 -3 -10 -1 -10 4 0 26 -21 7 -41 -36 -12 -27 -25 -50
-29 -53 -7 -5 -55 -103 -115 -235 -15 -33 -31 -73 -35 -90 -5 -16 -18 -55 -30
-85 -29 -75 -50 -146 -59 -200 -4 -25 -11 -51 -15 -59 -5 -8 -13 -41 -17 -75
-5 -33 -16 -108 -25 -166 -24 -163 -34 -1969 -24 -4265 9 -1840 14 -2113 40
-2189 5 -16 10 -44 10 -63 0 -18 7 -50 15 -70 8 -19 15 -48 15 -63 0 -15 7
-41 15 -56 8 -16 15 -41 15 -55 0 -15 7 -40 15 -55 8 -16 15 -38 15 -50 0 -11
4 -24 8 -30 5 -5 24 -49 42 -99 37 -104 56 -149 76 -187 8 -14 14 -33 14 -41
0 -9 4 -17 9 -19 4 -1 32 -48 61 -103 29 -55 69 -125 90 -155 20 -31 39 -62
42 -70 7 -16 112 -158 193 -259 71 -89 245 -265 350 -356 100 -85 364 -265
465 -315 36 -17 72 -36 80 -41 39 -23 195 -99 205 -99 5 0 22 -6 37 -14 15 -8
42 -17 60 -21 18 -4 38 -10 43 -14 21 -12 192 -57 272 -70 28 -5 66 -14 85
-19 18 -6 121 -17 228 -26 165 -12 534 -14 2425 -11 1227 2 2271 5 2320 6 50
0 304 -1 565 -4 264 -3 497 -1 524 4 27 5 95 12 150 15 56 3 118 12 139 20 20
8 58 14 82 14 25 0 45 4 45 10 0 5 17 12 38 15 20 4 53 12 72 19 19 8 62 21
95 30 33 10 74 23 90 31 17 7 64 28 105 46 41 18 77 36 78 41 2 4 12 8 21 8
19 0 187 84 212 106 8 8 21 14 27 14 6 0 23 11 38 25 15 14 38 28 51 31 13 4
23 10 23 15 0 5 8 13 19 17 22 8 68 43 130 97 25 23 66 57 91 77 101 81 277
265 356 373 32 44 67 89 79 100 22 22 76 100 87 128 4 9 12 17 18 17 5 0 10 6
10 14 0 8 6 21 13 28 17 19 34 47 57 95 11 23 24 44 29 47 5 3 12 22 15 41 4
19 10 35 14 35 11 0 42 59 42 80 0 9 7 23 15 30 8 7 15 20 15 30 0 10 7 23 15
30 8 7 15 23 15 36 0 13 4 24 10 24 5 0 13 18 16 40 4 22 11 43 15 46 5 3 9
23 9 45 0 28 4 39 15 39 10 0 15 10 15 34 0 18 7 39 15 46 9 7 15 29 15 55 0
27 6 47 16 56 10 8 14 22 10 39 -3 16 1 36 10 48 8 12 18 45 21 74 3 29 9 58
14 63 4 6 11 44 15 85 4 41 11 85 15 98 5 13 11 670 14 1460 3 851 9 1498 16
1587 7 105 7 495 0 1310 -6 638 -13 1336 -14 1552 -2 258 -7 396 -14 405 -10
12 -18 52 -44 233 -5 39 -14 72 -19 73 -6 2 -10 18 -10 35 -1 18 -7 43 -15 57
-8 14 -14 35 -15 47 0 12 -8 36 -17 55 -29 59 -33 68 -33 78 0 6 -9 32 -21 58
-11 26 -24 56 -28 67 -4 11 -22 49 -39 85 -18 36 -32 73 -32 83 0 9 -4 17 -9
17 -5 0 -14 12 -20 28 -16 37 -35 69 -57 95 -11 12 -28 39 -39 60 -11 20 -29
47 -40 60 -12 12 -24 30 -28 40 -3 9 -11 17 -16 17 -5 0 -13 10 -17 23 -4 12
-17 31 -29 43 -13 12 -34 39 -48 60 -13 21 -35 51 -48 65 -13 14 -45 53 -71
87 -27 34 -55 62 -63 62 -8 0 -15 5 -15 11 0 8 -67 79 -75 79 -2 0 -28 25 -59
56 -50 50 -60 56 -87 50 -31 -6 -89 16 -89 34 0 15 26 12 40 -5 13 -15 40 -21
40 -8 0 9 -72 73 -82 73 -5 0 -8 7 -8 15 0 17 -45 21 -55 5 -8 -12 -16 -12
-34 -1 -12 8 -12 12 -2 25 11 13 11 16 -1 16 -7 0 -21 9 -31 20 -19 23 -47 26
-65 8 -12 -12 -24 -4 -34 25 -2 4 -14 9 -28 12 -59 11 -121 65 -75 65 8 0 15
5 15 11 0 7 -7 8 -17 4 -42 -17 -56 -17 -83 4 -16 11 -37 21 -47 21 -10 0 -29
7 -42 17 -23 16 -23 17 -5 31 18 13 18 14 -3 8 -33 -10 -111 14 -144 45 -20
19 -40 27 -61 27 -18 -1 -36 6 -43 15 -9 12 -28 17 -66 18 -63 1 -141 19 -146
35 -2 6 7 15 19 21 22 10 22 11 4 19 -10 4 -26 3 -35 -2 -22 -14 -54 -6 -47
12 3 9 -4 16 -22 19 -15 3 -56 12 -92 19 -69 15 -180 19 -180 7 0 -4 20 -8 45
-8 49 0 81 -17 52 -29 -36 -13 -197 15 -222 39 -9 9 -26 17 -38 18 -110 6
-142 10 -169 24 -25 12 -73 15 -250 15 -120 0 -218 -4 -218 -9 0 -13 -207 -14
-215 -1 -8 13 -1145 13 -1145 0 0 -5 5 -12 10 -15 6 -4 8 -11 5 -16 -4 -5 39
-9 104 -9 67 0 111 -4 111 -10 0 -19 -875 -18 -894 1 -6 5 41 9 121 9 77 0
134 4 138 10 3 6 46 10 95 10 70 0 89 3 94 15 5 14 -123 16 -1231 15 -681 -1
-1244 -5 -1253 -10 -8 -4 -150 -9 -315 -11 -329 -4 -369 -7 -371 -29 -1 -8 -2
-28 -2 -43 -2 -27 -4 -28 -34 -21 -35 7 -82 49 -73 64 6 10 -93 42 -106 35 -4
-3 -10 -1 -14 5 -3 5 -21 9 -38 9 l-32 -2 35 -6z m2066 -9 c6 -4 11 -15 11
-24 0 -16 -12 -18 -98 -18 -66 0 -102 -4 -110 -12 -13 -14 -227 -13 -242 1 -4
4 -5 15 -1 24 5 14 22 17 99 17 52 0 97 -4 100 -10 10 -16 152 -13 158 4 5 13
24 20 62 24 6 1 15 -2 21 -6z m-680 -13 c3 -5 -43 -9 -101 -9 -61 0 -104 4
-101 9 8 12 195 11 202 0z m3649 1 c3 -5 1 -10 -4 -10 -6 0 -11 5 -11 10 0 6
2 10 4 10 3 0 8 -4 11 -10z m-487 -14 c21 -11 22 -15 10 -27 -12 -11 -38 -13
-134 -7 -65 3 -163 7 -217 7 -63 1 -96 5 -92 11 4 6 55 10 121 10 74 0 113 4
109 10 -10 15 175 12 203 -4z m-1625 -3 c-29 -2 -77 -2 -105 0 -29 2 -6 3 52
3 58 0 81 -1 53 -3z m-395 -34 c5 -42 -16 -50 -124 -47 -95 3 -98 4 -104 28
-12 48 -6 51 114 48 l111 -3 3 -26z m3297 -59 c14 -6 -2 -8 -50 -8 -52 0 -62
2 -40 8 40 10 66 10 90 0z m195 -9 c0 -5 -9 -7 -20 -4 -11 3 -20 7 -20 9 0 2
9 4 20 4 11 0 20 -4 20 -9z m-6447 -28 c-7 -2 -19 -2 -25 0 -7 3 -2 5 12 5 14
0 19 -2 13 -5z m-69 -33 c-7 -7 -19 -7 -35 -1 -23 9 -22 10 11 10 23 1 31 -2
24 -9z m6498 -2 c-8 -8 -20 -8 -44 -1 l-33 11 45 1 c33 1 41 -2 32 -11z
m-6929 -133 c-4 -15 -36 -12 -41 3 -3 9 3 13 19 10 13 -1 23 -7 22 -13z m51
-50 c3 -8 1 -15 -4 -15 -6 0 -10 7 -10 15 0 8 2 15 4 15 2 0 6 -7 10 -15z
m7556 -70 c0 -13 -36 -35 -56 -35 -32 0 -34 37 -1 42 21 4 57 -1 57 -7z m450
-145 c0 -5 -4 -10 -10 -10 -5 0 -10 5 -10 10 0 6 5 10 10 10 6 0 10 -4 10 -10z
m-8650 -28 c0 -13 -12 -22 -22 -16 -10 6 -1 24 13 24 5 0 9 -4 9 -8z m-101
-103 c-19 -28 -33 -29 -37 -1 -3 18 1 22 24 22 24 0 25 -1 13 -21z m8971 -50
c0 -12 -37 -12 -44 0 -3 4 -3 11 0 14 8 7 44 -4 44 -14z m-9163 -221 c-3 -8
-6 -5 -6 6 -1 11 2 17 5 13 3 -3 4 -12 1 -19z m9456 -113 c4 -8 2 -17 -3 -20
-6 -4 -10 3 -10 14 0 25 6 27 13 6z m-9696 -101 c-3 -3 -12 -4 -19 -1 -8 3 -5
6 6 6 11 1 17 -2 13 -5z m-70 -86 c-3 -7 -5 -2 -5 12 0 14 2 19 5 13 2 -7 2
-19 0 -25z m8290 -2122 c4 -3 -11 -41 -26 -66 -9 -14 -24 -54 -50 -130 -70
-200 -70 -500 0 -700 46 -132 111 -266 137 -283 6 -4 12 -13 12 -19 0 -30 205
-246 293 -308 26 -18 47 -37 47 -42 0 -4 8 -8 17 -8 9 0 24 -6 32 -14 22 -19
189 -106 204 -106 7 0 28 -13 47 -29 l35 -28 3 -402 c5 -435 4 -440 -50 -457
-13 -3 -25 -10 -28 -14 -3 -4 -50 -31 -105 -60 -55 -29 -109 -58 -120 -64 -53
-30 -216 -159 -260 -207 -91 -100 -187 -239 -201 -294 -3 -14 -10 -28 -15 -31
-5 -3 -9 -13 -9 -23 0 -10 -7 -24 -15 -31 -8 -7 -15 -25 -15 -41 0 -16 -6 -43
-14 -61 -58 -134 -60 -490 -4 -653 5 -16 12 -41 15 -55 7 -39 67 -168 105
-229 6 -10 8 -26 5 -35 -6 -15 -254 -16 -3180 -16 -2528 0 -3177 3 -3185 13
-6 8 -5 30 5 67 24 91 3 305 -40 410 -36 87 -42 100 -48 100 -4 0 -10 11 -13
25 -4 14 -11 25 -16 25 -6 0 -10 5 -10 11 0 27 -187 210 -260 254 -31 19 -63
35 -69 35 -6 0 -11 4 -11 9 0 5 -12 12 -27 15 -16 4 -41 13 -58 21 -75 34
-105 45 -127 45 -13 0 -29 5 -34 10 -6 6 -40 13 -77 17 -54 5 -69 10 -82 29
-13 20 -15 164 -15 1128 -1 609 1 1110 4 1115 3 4 36 10 73 13 38 3 77 10 88
15 11 6 53 21 93 33 40 12 75 26 78 31 3 5 13 9 23 9 10 0 24 7 31 15 7 8 18
15 26 15 13 0 98 53 122 77 7 7 17 13 22 13 13 0 169 160 175 181 4 10 11 19
16 19 5 0 9 6 9 14 0 8 4 16 9 18 7 2 63 115 91 183 21 53 33 193 21 269 -11
77 -15 169 -7 177 5 5 6328 0 6333 -5z m1953 -5666 c0 -5 -2 -10 -4 -10 -3 0
-8 5 -11 10 -3 6 -1 10 4 10 6 0 11 -4 11 -10z m-480 -986 c0 -8 -5 -12 -10
-9 -6 4 -8 11 -5 16 9 14 15 11 15 -7z"/>
<path d="M5750 7330 c0 -5 -6 -10 -12 -10 -7 0 -26 -17 -43 -36 -16 -20 -36
-42 -43 -50 -20 -21 -17 -145 4 -186 30 -57 64 -78 64 -38 0 20 11 26 23 13 4
-3 2 -12 -3 -18 -6 -7 -8 -19 -5 -28 10 -24 289 -29 1396 -26 942 4 1008 5
1026 22 11 9 26 17 34 17 20 1 62 35 58 48 -3 7 -22 2 -52 -14 -32 -16 -65
-24 -97 -24 -27 0 -52 -4 -55 -10 -10 -17 -42 -11 -48 9 -2 10 0 26 5 35 13
22 6 28 -39 35 -34 6 -39 10 -43 41 -4 26 -11 36 -30 41 -14 4 -21 7 -16 8 5
1 3 9 -6 19 -13 16 -15 37 -7 72 6 25 31 39 82 46 26 4 50 11 53 15 7 12 44
11 44 0 0 -15 41 -24 53 -12 14 14 47 14 47 1 0 -5 -12 -10 -27 -10 l-27 0 22
-21 c13 -11 31 -21 42 -22 11 -1 20 -4 20 -8 0 -5 25 -5 63 0 11 2 8 41 -3 41
-5 0 -10 7 -10 15 0 8 -8 15 -19 15 -10 0 -24 7 -31 15 -11 13 -158 15 -1216
15 -796 0 -1204 -3 -1204 -10z m2007 -64 c9 -9 21 -79 16 -92 -5 -13 -30 -16
-195 -18 -30 -1 -32 1 -34 38 -2 21 2 50 7 64 10 25 10 25 106 19 53 -4 98 -9
100 -11z m-2017 -46 c0 -5 -4 -10 -9 -10 -6 0 -13 5 -16 10 -3 6 1 10 9 10 9
0 16 -4 16 -10z m1352 -45 c-3 -45 -7 -52 -25 -37 -7 6 -33 14 -57 17 -35 4
-40 3 -25 -5 18 -9 17 -10 -5 -4 -14 3 -35 7 -47 8 -22 2 -53 23 -53 35 0 17
47 26 88 17 34 -8 46 -7 58 6 11 11 24 14 43 8 23 -6 26 -11 23 -45z m-731 25
c46 0 49 -2 49 -25 0 -22 -4 -25 -37 -26 -21 -1 -43 -1 -50 0 -6 1 -14 -3 -18
-9 -9 -14 -25 -12 -25 3 0 9 -10 12 -31 9 -24 -3 -30 -1 -27 9 3 8 15 15 27
17 12 2 25 10 28 18 3 8 12 13 20 10 8 -3 37 -6 64 -6z m-671 -28 c0 -5 -7
-17 -15 -28 -14 -18 -14 -18 -15 9 0 17 5 27 15 27 8 0 15 -4 15 -8z m7 -94
c-3 -8 -6 -5 -6 6 -1 11 2 17 5 13 3 -3 4 -12 1 -19z m2075 -76 c14 -14 19
-14 -97 -14 -121 0 -177 4 -142 9 15 2 27 9 27 15 0 15 196 6 212 -10z m-1864
-14 c-6 -18 -45 -18 -59 -2 -9 11 -5 14 26 14 25 0 35 -4 33 -12z m1475 5 c-7
-2 -21 -2 -30 0 -10 3 -4 5 12 5 17 0 24 -2 18 -5z m50 0 c-7 -2 -19 -2 -25 0
-7 3 -2 5 12 5 14 0 19 -2 13 -5z m60 0 c-7 -2 -19 -2 -25 0 -7 3 -2 5 12 5
14 0 19 -2 13 -5z"/>
<path d="M3465 7213 c-44 -8 -100 -21 -125 -29 -25 -8 -55 -14 -68 -14 -12 0
-30 -4 -40 -9 -9 -6 -37 -19 -62 -30 -118 -51 -150 -69 -225 -120 -44 -30 -81
-58 -83 -63 -2 -4 -8 -8 -13 -8 -10 0 -137 -125 -189 -186 -51 -59 -136 -180
-157 -224 -18 -38 -48 -104 -83 -185 -5 -11 -11 -31 -13 -45 -3 -14 -10 -38
-15 -55 -30 -89 -36 -133 -39 -338 -3 -176 -1 -228 11 -272 9 -29 16 -62 16
-73 0 -11 7 -33 15 -48 8 -16 15 -39 15 -52 0 -12 4 -30 9 -40 6 -9 25 -51 45
-92 19 -41 46 -92 60 -113 14 -21 26 -40 26 -44 0 -5 57 -81 70 -93 3 -3 21
-25 40 -50 115 -150 286 -292 435 -359 28 -12 59 -27 70 -34 11 -6 58 -21 105
-33 84 -22 130 -53 130 -90 0 -8 5 -14 10 -14 6 0 10 -5 10 -12 0 -6 14 -41
31 -77 16 -36 37 -82 45 -101 9 -19 22 -48 30 -63 8 -16 14 -33 14 -38 0 -10
2 -14 51 -71 44 -54 79 -52 116 5 16 23 31 44 36 45 4 2 7 11 7 21 0 9 4 21 9
27 5 5 21 37 35 71 14 35 37 87 51 117 14 30 25 60 25 65 0 6 3 11 8 11 4 0
13 13 20 29 13 30 41 44 147 77 64 19 181 72 230 104 17 11 37 23 45 27 8 3
31 19 51 35 20 15 40 28 44 28 16 0 235 225 271 278 21 31 41 59 44 62 6 6 12
16 78 140 27 52 57 118 66 145 9 28 20 59 25 70 61 145 76 571 25 708 -8 20
-14 51 -14 67 0 16 -4 31 -9 35 -5 3 -13 20 -17 37 -3 18 -10 39 -15 48 -5 8
-18 37 -30 65 -27 62 -91 166 -138 225 -20 25 -45 58 -55 73 -25 40 -143 156
-199 197 -26 18 -47 37 -47 42 0 4 -4 8 -9 8 -5 0 -35 17 -67 39 -99 64 -232
124 -307 137 -20 3 -40 10 -43 15 -3 5 -27 9 -53 9 -26 0 -70 7 -97 15 -62 19
-249 18 -359 -2z m241 -510 l48 -6 -59 -18 c-97 -29 -133 -44 -157 -66 -13
-11 -30 -23 -38 -25 -8 -3 -16 -16 -17 -29 -3 -51 -10 -64 -35 -67 -18 -2 -27
4 -36 23 -7 14 -16 24 -21 20 -5 -3 -13 0 -17 6 -4 8 -9 7 -15 -2 -7 -11 -9
-11 -9 -1 0 8 -5 10 -12 6 -7 -4 -5 2 6 14 10 12 21 21 25 20 22 -4 60 18 75
44 13 21 21 27 29 19 20 -20 36 -12 51 23 13 31 19 35 58 39 24 2 50 4 59 5 9
1 38 -1 65 -5z m139 -33 c3 -6 -5 -10 -19 -10 -14 0 -28 5 -31 10 -3 6 5 10
19 10 14 0 28 -4 31 -10z m-394 -9 c-8 -5 -20 -7 -28 -4 -21 8 -15 13 15 13
20 0 23 -3 13 -9z m-61 -26 c0 -10 -10 -15 -30 -15 -29 0 -38 9 -23 23 13 13
53 7 53 -8z m350 5 c0 -5 -7 -10 -15 -10 -8 0 -15 5 -15 10 0 6 7 10 15 10 8
0 15 -4 15 -10z m273 -37 c-7 -2 -19 -2 -25 0 -7 3 -2 5 12 5 14 0 19 -2 13
-5z m-758 -23 c3 -6 -1 -13 -9 -16 -20 -8 -21 -40 -1 -48 18 -7 20 -42 2 -53
-7 -4 -18 -20 -24 -35 -11 -25 -41 -37 -55 -22 -12 11 5 44 26 50 42 13 42 54
0 54 -13 0 -24 3 -24 7 0 12 33 43 47 43 7 0 13 7 13 15 0 17 16 20 25 5z
m295 -15 c10 -12 10 -15 -4 -15 -9 0 -16 7 -16 15 0 8 2 15 4 15 2 0 9 -7 16
-15z m437 -6 c8 -7 23 -30 34 -51 17 -34 24 -38 57 -38 38 -1 72 -19 72 -38 0
-6 6 -15 14 -19 8 -4 15 -17 17 -28 3 -12 14 -21 27 -23 14 -2 27 -14 34 -30
10 -25 11 -26 18 -7 13 31 12 35 -11 35 -11 0 -18 4 -15 9 3 4 -6 19 -19 31
-14 13 -25 35 -25 48 0 24 2 23 38 -16 76 -85 92 -105 92 -123 0 -9 11 -31 25
-47 14 -17 25 -35 25 -41 0 -6 6 -11 13 -11 20 0 46 -82 29 -88 -10 -3 -9 -9
5 -24 12 -14 18 -38 19 -76 1 -32 8 -88 15 -126 11 -60 10 -80 -6 -163 -10
-51 -24 -98 -32 -104 -7 -7 -13 -24 -13 -39 0 -15 -7 -33 -15 -40 -8 -7 -15
-18 -15 -26 0 -7 -8 -18 -18 -23 -9 -5 -24 -26 -31 -48 -13 -35 -27 -52 -42
-53 -4 0 -9 19 -12 42 -6 46 3 65 40 79 13 5 20 14 17 22 -6 17 -93 16 -152
-3 -34 -11 -47 -11 -65 -1 -24 14 -67 75 -67 96 0 8 -4 17 -10 20 -5 3 -10 13
-10 21 0 8 5 14 10 14 6 0 10 -7 10 -15 0 -8 7 -15 15 -15 19 0 19 29 0 54 -8
11 -15 30 -15 44 0 13 -4 20 -10 17 -5 -3 -10 -17 -10 -31 0 -14 -7 -32 -15
-40 -8 -9 -15 -23 -15 -33 0 -18 -52 -71 -70 -71 -14 0 -12 -27 3 -33 6 -2 8
-8 4 -13 -4 -4 -16 -3 -26 3 -15 9 -23 9 -37 -2 -11 -8 -32 -15 -49 -15 -16 0
-41 -7 -55 -15 -34 -19 -159 -20 -196 0 -16 8 -44 15 -61 15 -18 0 -33 4 -33
9 0 5 -10 11 -22 15 -26 7 -118 86 -118 101 0 6 -9 18 -20 28 -12 10 -20 29
-20 46 0 16 -5 31 -12 33 -8 3 -11 48 -11 151 0 142 -6 174 -24 123 l-8 -24
-35 18 c-19 11 -45 24 -57 29 -13 6 -23 15 -23 20 0 5 -10 11 -22 14 -32 9
-20 15 37 18 28 1 66 8 84 16 40 16 63 11 55 -12 -3 -8 -3 -22 0 -31 6 -15 8
-15 26 1 11 10 20 24 20 32 0 7 4 13 9 13 5 0 11 14 15 30 3 18 12 30 21 30 9
0 30 13 48 30 21 20 42 30 63 30 19 0 34 6 38 15 4 12 30 15 141 15 111 0 137
-3 141 -15 4 -8 17 -15 30 -15 14 0 27 -7 30 -15 4 -8 16 -15 27 -15 18 0 16
5 -18 40 -26 26 -48 40 -65 40 -14 0 -33 9 -43 20 -22 26 -21 30 4 30 11 0 17
5 14 10 -3 6 -1 10 4 10 6 0 11 -7 11 -15 0 -25 35 -17 46 10 9 25 10 25 32
10 27 -20 28 -41 2 -48 -26 -7 -26 -27 0 -27 11 0 23 -7 26 -15 4 -8 10 -15
15 -15 5 0 9 7 9 15 0 8 -4 15 -10 15 -5 0 -10 5 -10 10 0 6 11 10 25 10 18 0
28 -9 41 -35 14 -30 21 -35 46 -33 37 3 44 13 25 41 -24 38 -31 86 -13 93 21
8 21 30 0 38 -29 11 -43 6 -46 -16 -5 -34 -49 -36 -65 -3 -10 24 -9 25 17 25
38 0 45 14 24 45 -12 18 -20 23 -27 16 -14 -14 -77 -14 -77 -1 0 6 14 10 31
10 27 0 30 2 19 15 -9 11 -10 15 -1 15 16 0 42 26 34 33 -11 12 39 -2 54 -14z
m-100 5 c-3 -3 -12 -4 -19 -1 -8 3 -5 6 6 6 11 1 17 -2 13 -5z m203 -15 c0 -6
10 -14 23 -18 19 -8 20 -10 5 -16 -10 -4 -27 1 -42 12 -31 22 -34 43 -6 36 11
-3 20 -9 20 -14z m-693 -34 c0 -19 -16 -23 -47 -14 l-25 7 27 1 c15 1 30 6 33
11 9 14 12 13 12 -5z m-261 -54 c-14 -15 -26 -32 -26 -39 0 -7 -5 -12 -10 -12
-7 0 -7 -6 0 -20 10 -19 1 -25 -31 -22 -3 1 -5 -10 -3 -24 3 -29 -33 -97 -47
-89 -13 9 -22 -41 -13 -72 9 -31 13 -73 7 -73 -2 0 -12 5 -23 12 -13 9 -27 9
-47 2 -25 -8 -29 -16 -35 -68 -8 -59 -23 -90 -39 -80 -14 8 -10 56 6 84 8 14
15 39 15 55 0 17 7 39 15 49 8 11 15 28 15 38 0 21 11 23 29 6 10 -11 11 -4 5
32 -7 42 -6 44 10 31 15 -13 19 -13 27 0 12 19 11 59 -1 59 -5 0 -10 5 -10 11
0 6 8 8 18 5 21 -7 58 27 48 43 -4 5 4 20 17 33 13 13 26 28 28 34 2 5 17 20
34 32 38 30 47 10 11 -27z m741 13 c-3 -3 -12 -4 -19 -1 -8 3 -5 6 6 6 11 1
17 -2 13 -5z m-627 -103 c7 -13 7 -28 0 -46 -5 -14 -10 -54 -10 -87 0 -70 -18
-68 -22 2 0 8 -4 20 -8 25 -15 18 -14 80 1 103 17 27 25 28 39 3z m120 -21
c-19 -13 -30 -13 -30 0 0 6 10 10 23 10 18 0 19 -2 7 -10z m360 -24 c0 -3 -4
-8 -10 -11 -5 -3 -10 -1 -10 4 0 6 5 11 10 11 6 0 10 -2 10 -4z m-312 -38 c-3
-7 -17 -19 -31 -26 -15 -7 -34 -29 -42 -48 -13 -31 -17 -34 -35 -24 -18 10
-19 14 -8 28 23 28 44 47 74 64 36 20 47 22 42 6z m-452 -293 c8 -20 -4 -65
-16 -65 -6 0 -10 18 -10 40 0 40 15 54 26 25z m258 -21 c10 -4 16 -18 16 -40
0 -34 -1 -34 -45 -34 -38 0 -43 2 -38 18 4 9 12 21 20 25 7 4 13 15 13 22 0
16 9 18 34 9z m-338 -90 c-4 -13 -11 -24 -16 -24 -11 0 -13 40 -4 65 7 16 8
16 16 0 6 -9 7 -27 4 -41z m134 36 c0 -5 -4 -10 -10 -10 -5 0 -10 5 -10 10 0
6 5 10 10 10 6 0 10 -4 10 -10z m-63 -52 c-3 -8 -6 -5 -6 6 -1 11 2 17 5 13 3
-3 4 -12 1 -19z m144 -10 c0 -18 3 -27 6 -20 8 20 32 -17 33 -50 0 -35 15 -43
70 -41 41 2 47 0 66 -30 18 -29 19 -36 7 -54 -13 -19 -12 -21 12 -27 27 -7 35
-36 10 -36 -21 0 -59 -36 -51 -49 4 -6 23 1 49 19 42 29 42 29 52 8 7 -16 6
-23 -3 -26 -8 -2 -25 -15 -40 -28 -27 -23 -27 -23 -4 -24 12 0 22 5 22 10 0 6
7 10 15 10 8 0 15 5 15 10 0 6 14 10 30 10 41 0 38 -15 -10 -37 -22 -10 -40
-24 -40 -30 0 -7 -12 -16 -27 -19 -29 -8 -62 -40 -63 -61 0 -19 -18 -16 -24 5
-3 9 -20 23 -37 31 -31 14 -44 36 -52 87 -6 41 -30 88 -47 92 -8 2 -20 12 -28
24 -10 14 -17 17 -25 9 -13 -13 -47 -15 -47 -2 0 13 29 78 30 65 0 -6 7 -11
15 -11 10 0 15 10 15 29 0 17 -4 27 -10 23 -6 -4 -10 20 -10 64 0 72 4 79 48
80 18 1 22 -4 23 -31z m-141 -192 c0 -25 5 -35 20 -39 16 -4 20 -14 20 -46 0
-30 -4 -41 -15 -41 -17 0 -19 -9 -5 -30 9 -13 12 -13 24 3 13 17 15 15 21 -22
4 -23 11 -38 16 -35 6 3 7 -5 3 -20 -4 -16 -2 -26 5 -26 6 0 11 -7 11 -15 0
-17 35 -21 45 -5 3 6 10 10 16 10 5 0 9 -4 9 -10 0 -5 -7 -10 -15 -10 -36 0
-9 -50 64 -117 38 -35 50 -52 39 -53 -29 0 -188 146 -188 173 0 8 -7 17 -15
21 -8 3 -15 12 -15 20 0 8 -3 16 -7 18 -5 2 -18 17 -30 35 -24 34 -30 63 -13
63 6 0 10 20 10 45 0 25 -4 45 -10 45 -5 0 -10 16 -10 35 0 19 5 35 10 35 6 0
10 -15 10 -34z m-20 -88 c0 -21 -3 -38 -6 -38 -16 0 -43 49 -44 78 l0 33 25
-18 c18 -14 24 -27 25 -55z m1074 -5 c4 -9 1 -20 -6 -25 -17 -10 -20 -10 -38
2 -13 9 -12 12 4 25 25 19 32 19 40 -2z m56 -79 c0 -17 -38 -34 -59 -26 -10 4
-11 7 -3 10 7 2 12 10 12 17 0 13 28 25 43 18 4 -2 7 -11 7 -19z m-600 6 c0
-5 -4 -10 -10 -10 -5 0 -10 -7 -10 -15 0 -8 -7 -15 -15 -15 -8 0 -23 -9 -32
-20 -21 -24 -63 -27 -63 -5 0 10 10 15 30 15 19 0 30 5 30 14 0 8 12 21 28 29
34 18 42 20 42 7z m423 -14 c-5 -25 -27 -41 -44 -30 -16 10 -10 23 19 37 15 8
28 15 28 16 1 1 -1 -10 -3 -23z m342 -18 c-9 -5 -24 -7 -33 -3 -15 6 -15 8 3
15 28 10 53 0 30 -12z m-85 -34 c0 -18 -14 -18 -29 0 -9 11 -9 15 1 19 17 6
28 -1 28 -19z m-650 10 c0 -3 -6 -12 -14 -20 -10 -9 -13 -26 -9 -49 5 -31 3
-35 -15 -35 -48 0 -71 63 -28 80 13 5 27 14 31 19 6 11 35 15 35 5z m749 -38
c12 -18 21 -36 21 -39 0 -13 -63 -77 -76 -77 -22 0 -16 22 12 47 14 12 23 27
19 32 -10 17 -45 13 -45 -4 0 -8 -4 -15 -10 -15 -15 0 -12 27 5 60 21 40 48
38 74 -4z m-1041 -45 c7 -4 14 -17 15 -29 0 -12 7 -24 15 -27 7 -3 11 -9 7
-15 -3 -5 -15 -1 -28 10 -12 11 -30 27 -40 35 -28 25 -2 47 31 26z m972 -85
c0 -11 -19 -15 -25 -6 -3 5 1 10 9 10 9 0 16 -2 16 -4z m-880 -87 c0 -5 8 -9
18 -9 11 0 29 -8 40 -17 12 -10 33 -26 47 -36 28 -20 33 -37 10 -37 -8 0 -15
4 -15 10 0 5 -16 12 -35 16 -19 3 -39 12 -46 20 -6 8 -17 14 -23 14 -14 1 -56
36 -56 47 0 5 14 8 30 5 17 -2 30 -8 30 -13z m660 1 c0 -13 33 -13 65 2 14 6
28 9 31 5 10 -9 -34 -46 -63 -53 -16 -4 -34 -11 -41 -17 -17 -14 -28 -1 -13
17 8 10 9 16 1 21 -15 9 -12 35 5 35 8 0 15 -4 15 -10z m-489 -21 c4 -8 3 -20
-4 -27 -10 -12 -13 -11 -17 9 -4 16 -15 26 -35 30 -24 5 -22 6 9 4 21 -2 42
-9 47 -16z m225 -48 c-3 -5 -15 -7 -26 -4 -28 7 -25 13 6 13 14 0 23 -4 20 -9z
m178 -7 c32 -12 15 -24 -35 -24 -45 0 -50 2 -39 15 13 15 47 20 74 9z m-126
-31 c2 -8 -5 -13 -17 -13 -12 0 -21 6 -21 16 0 18 31 15 38 -3z"/>
<path d="M4160 6311 c0 -17 5 -31 10 -31 6 0 10 11 10 24 0 14 -4 28 -10 31
-6 4 -10 -7 -10 -24z"/>
<path d="M4073 6267 c-4 -7 -6 -19 -5 -28 1 -8 -6 -23 -16 -32 -16 -15 -21
-15 -46 -2 -32 17 -96 20 -96 5 0 -5 7 -10 15 -10 8 0 15 -5 15 -10 0 -6 11
-16 25 -22 16 -7 25 -19 25 -33 0 -13 7 -28 15 -35 8 -7 15 -20 15 -29 0 -9 7
-29 15 -45 12 -22 15 -58 14 -135 -1 -69 3 -107 10 -109 6 -2 11 -12 11 -23 0
-11 7 -30 15 -43 15 -23 11 -56 -6 -56 -19 0 -8 -31 15 -42 17 -7 26 -20 28
-41 4 -42 28 -48 28 -7 0 24 5 33 20 37 14 4 19 11 15 24 -3 11 -7 27 -10 37
-3 9 -15 22 -27 27 -25 11 -37 54 -16 56 7 1 20 3 28 4 8 1 21 3 28 4 6 0 12
9 12 20 0 24 23 43 44 35 10 -4 17 -1 17 7 1 8 5 -2 9 -21 l7 -35 2 37 c0 20
6 40 11 43 6 3 11 39 12 78 1 66 2 68 8 27 l7 -45 1 43 c1 24 -3 53 -9 64 -8
14 -8 23 0 31 6 6 11 25 11 43 0 24 -5 33 -22 38 -30 7 -43 -7 -29 -32 15 -29
14 -37 -4 -22 -13 11 -15 6 -16 -36 -1 -27 0 -59 1 -71 1 -12 -4 -31 -10 -42
-15 -29 -77 -26 -106 6 -20 21 -22 22 -28 6 -5 -11 -1 -22 10 -30 14 -10 17
-25 15 -66 -3 -60 -11 -73 -39 -58 -14 7 -18 17 -14 36 2 14 8 28 13 31 11 7
12 51 1 56 -5 2 -12 34 -15 71 -5 52 -3 68 6 65 7 -3 16 -14 22 -26 5 -12 15
-24 23 -27 21 -8 26 25 7 39 -14 10 -17 22 -13 59 3 25 3 49 0 52 -9 9 -32
-17 -32 -36 0 -32 -28 -20 -49 19 -18 35 2 55 47 47 34 -6 34 -6 27 22 -3 15
-7 40 -6 55 0 28 -23 45 -36 25z m83 -623 c-3 -9 -6 -20 -6 -25 0 -5 -4 -9
-10 -9 -5 0 -10 11 -10 25 0 16 6 25 16 25 11 0 14 -5 10 -16z"/>
<path d="M4201 6216 c-14 -16 -6 -23 39 -36 24 -7 28 -6 23 8 -15 42 -41 54
-62 28z"/>
<path d="M4386 6043 c-4 -16 -2 -48 3 -73 9 -44 9 -43 10 28 1 75 -3 91 -13
45z"/>
<path d="M3043 5825 c0 -27 2 -38 4 -22 2 15 2 37 0 50 -2 12 -4 0 -4 -28z"/>
<path d="M3068 5845 c2 -13 12 -30 21 -37 13 -10 14 -10 4 2 -7 8 -13 22 -13
31 0 10 -4 20 -9 23 -4 3 -6 -6 -3 -19z"/>
<path d="M3117 5783 c-4 -3 -7 -11 -7 -17 0 -6 5 -5 12 2 6 6 9 14 7 17 -3 3
-9 2 -12 -2z"/>
<path d="M3250 5621 c0 -6 5 -13 10 -16 6 -3 10 1 10 9 0 9 -4 16 -10 16 -5 0
-10 -4 -10 -9z"/>
<path d="M3245 5480 c-3 -6 1 -13 10 -16 19 -8 30 0 20 15 -8 14 -22 14 -30 1z"/>
<path d="M8260 7205 c0 -8 4 -15 10 -15 5 0 7 7 4 15 -4 8 -8 15 -10 15 -2 0
-4 -7 -4 -15z"/>
<path d="M7898 7163 c7 -3 16 -2 19 1 4 3 -2 6 -13 5 -11 0 -14 -3 -6 -6z"/>
<path d="M8025 7050 c3 -5 10 -10 16 -10 5 0 9 5 9 10 0 6 -7 10 -16 10 -8 0
-12 -4 -9 -10z"/>
<path d="M7875 6460 c-71 -3 -562 -7 -1090 -8 -528 -2 -978 -5 -1000 -9 -65
-10 -138 -67 -151 -117 -3 -14 -10 -29 -15 -32 -16 -9 -10 -88 12 -144 26 -71
51 -97 119 -127 l55 -25 1165 -2 c1091 -1 1167 0 1195 16 17 10 35 18 40 18 6
0 26 22 45 48 19 26 39 50 44 54 6 3 10 44 10 90 1 76 -1 86 -28 124 -16 22
-46 52 -65 66 -34 23 -159 60 -191 56 -8 -1 -73 -5 -145 -8z"/>
<path d="M9146 6015 c-3 -8 -12 -15 -19 -15 -20 0 -67 -57 -67 -81 0 -12 -5
-39 -11 -60 -11 -34 -9 -42 15 -82 14 -26 39 -51 56 -59 16 -7 30 -19 30 -25
0 -9 18 -13 57 -13 44 0 63 5 89 25 18 14 37 25 43 25 6 0 11 5 11 10 0 15
-61 12 -91 -4 -17 -8 -32 -10 -42 -5 -9 5 -35 11 -59 12 -38 3 -43 6 -46 30
-3 21 1 27 17 27 23 0 32 18 19 43 -12 24 -25 21 -42 -10 l-15 -28 -8 24 c-12
31 17 125 41 129 9 2 16 8 16 13 0 6 4 8 9 5 4 -3 6 -16 4 -29 -4 -21 1 -25
41 -37 53 -15 100 -4 53 12 -40 14 -27 33 21 32 45 -1 92 -26 99 -54 7 -26 33
-34 33 -11 0 39 -57 111 -88 111 -5 0 -15 7 -22 15 -9 10 -32 15 -75 15 -47 0
-64 -4 -69 -15z m114 -14 c0 -6 -5 -13 -10 -16 -15 -9 -43 3 -35 15 8 13 45
13 45 1z"/>
<path d="M9100 5910 c0 -5 9 -10 20 -10 11 0 20 5 20 10 0 6 -9 10 -20 10 -11
0 -20 -4 -20 -10z"/>
<path d="M9217 5812 c-22 -24 -21 -29 2 -35 23 -6 61 18 61 39 0 20 -44 18
-63 -4z"/>
<path d="M5795 5512 c-43 -4 -89 -30 -111 -63 -10 -16 -24 -29 -31 -29 -31 0
-27 -184 5 -219 9 -10 28 -31 40 -45 18 -19 28 -24 40 -17 12 7 23 5 36 -7 16
-15 53 -17 340 -18 176 0 654 -4 1061 -8 467 -4 733 -3 720 3 -11 5 -36 10
-55 11 -32 2 -33 3 -10 10 14 4 21 9 15 9 -5 1 -3 6 5 11 12 8 11 10 -8 10
-12 0 -25 6 -28 14 -3 8 -20 17 -37 21 -69 13 -123 29 -135 42 -12 11 -26 15
-49 12 -3 0 -10 6 -15 15 -8 15 -11 14 -27 -5 -16 -19 -26 -21 -121 -21 -111
1 -120 5 -120 55 l0 27 -100 0 c-73 0 -100 3 -100 13 0 9 25 12 97 11 71 -1
100 2 111 12 11 11 45 14 150 14 132 -1 234 12 260 32 6 6 12 7 12 4 0 -4 9
-2 19 4 11 5 21 22 23 37 3 28 3 28 108 36 100 8 119 11 109 22 -5 5 -2154 12
-2204 7z m-49 -67 c4 -8 17 -15 31 -15 27 0 27 -17 1 -33 -19 -13 -67 20 -68
46 0 21 28 23 36 2z m447 -85 c3 -12 14 -20 29 -21 22 -1 22 -1 -3 -9 -30 -9
-81 -2 -74 10 3 4 -7 8 -23 7 -68 -2 -132 4 -132 13 0 6 25 10 56 10 41 0 53
-3 48 -12 -6 -10 -5 -10 7 -1 12 10 38 17 75 22 7 0 14 -8 17 -19z m672 -12
c0 -22 -4 -23 -115 -31 -151 -11 -439 -14 -433 -4 2 4 -10 7 -26 7 -17 0 -31
4 -31 9 0 13 37 21 98 21 38 0 54 4 59 16 5 13 33 15 227 10 l221 -4 0 -24z
m-918 -10 c-3 -8 -6 -5 -6 6 -1 11 2 17 5 13 3 -3 4 -12 1 -19z m451 -50 c7
-7 12 -39 12 -73 l0 -61 -97 2 c-54 1 -101 2 -105 3 -12 2 -10 59 2 66 6 3 10
11 10 16 0 6 -4 7 -10 4 -6 -3 -7 1 -4 9 3 9 10 13 15 10 5 -3 9 2 9 10 0 9 5
16 10 16 6 0 10 -7 10 -15 0 -8 5 -15 11 -15 6 0 9 7 5 15 -6 17 -6 17 52 6
33 -7 42 -5 42 5 0 17 22 18 38 2z m1147 -108 c0 -12 -20 -16 -104 -18 -75 -2
-107 1 -112 10 -15 24 4 29 109 26 87 -2 107 -6 107 -18z m-2 -44 c3 -8 3 -17
0 -20 -4 -3 -53 -6 -110 -6 -96 0 -103 1 -103 20 0 19 7 20 104 20 80 0 105
-3 109 -14z"/>
<path d="M8029 5491 c-15 -17 -15 -19 10 -27 20 -7 30 -5 45 10 19 19 20 19
42 -7 26 -30 59 -35 68 -11 4 9 5 17 4 18 -83 41 -144 48 -169 17z"/>
<path d="M8230 5440 c0 -5 5 -10 10 -10 6 0 10 5 10 10 0 6 -4 10 -10 10 -5 0
-10 -4 -10 -10z"/>
<path d="M8135 5185 c-25 -9 -57 -13 -86 -9 -36 5 -47 3 -52 -9 -9 -24 14 -36
79 -43 48 -5 62 -3 73 10 7 9 26 16 42 16 19 0 29 5 29 15 0 8 7 15 16 15 8 0
12 5 9 10 -9 14 -63 12 -110 -5z"/>
<path d="M6930 4560 c0 -5 -9 -10 -20 -10 -26 0 -70 -28 -70 -45 0 -7 -7 -15
-15 -19 -8 -3 -20 -17 -25 -31 -5 -14 -14 -25 -20 -25 -13 0 -13 -64 1 -115
13 -50 70 -110 128 -136 41 -18 71 -19 625 -19 l581 0 65 32 c36 18 70 39 77
48 16 20 16 69 -2 100 -13 23 -14 24 -21 6 -5 -13 -2 -23 9 -31 29 -21 20 -42
-19 -50 -20 -3 -43 -13 -51 -21 -20 -19 -36 -18 -64 7 -21 18 -32 20 -81 15
-58 -7 -117 8 -133 35 -5 7 -4 10 2 6 5 -4 10 15 12 44 2 44 0 49 -12 37 -10
-9 -12 -20 -6 -36 12 -31 12 -32 -8 -31 -11 0 -13 3 -6 6 10 3 9 8 -3 20 -14
14 -12 19 17 49 24 24 28 35 18 38 -8 2 -21 7 -29 9 -8 3 -3 6 13 6 20 1 27 6
27 21 0 17 7 20 44 20 l43 0 1 -47 c1 -26 7 -50 14 -55 10 -6 10 -8 1 -8 -7 0
-13 -5 -13 -10 0 -14 53 0 63 17 4 7 15 13 22 13 8 0 15 5 15 10 0 26 132 5
165 -26 33 -31 32 -11 -5 62 -37 75 -53 94 -76 94 -10 0 -32 7 -48 15 -24 13
-115 15 -622 15 -389 0 -594 -3 -594 -10z m100 -19 c0 -10 -50 -25 -57 -17 -3
2 -2 9 2 15 8 13 55 15 55 2z m1150 -30 c0 -13 -34 -23 -54 -15 -28 11 -18 24
19 24 19 0 35 -4 35 -9z m-1083 -25 c1 -1 0 -12 -3 -23 -7 -27 -62 -33 -146
-17 -32 6 -58 9 -58 6 0 -3 -3 -3 -6 0 -3 4 0 16 6 28 11 21 16 21 108 15 53
-4 98 -8 99 -9z m508 -5 c-8 -13 -45 -15 -45 -2 0 5 10 11 23 13 27 5 31 3 22
-11z m-57 -105 l3 -37 -48 7 c-26 5 -61 8 -78 7 -56 -4 -91 6 -92 26 -1 14 6
19 25 20 47 2 103 9 108 13 2 3 21 4 42 4 35 -2 37 -3 40 -40z m-670 -124 c2
-7 -6 -12 -17 -12 -21 0 -27 11 -14 24 9 9 26 2 31 -12z m1222 -58 c0 -15 -10
-16 -77 -10 -42 3 -119 7 -172 8 -96 2 -96 2 34 8 72 3 149 7 173 8 33 2 42
-1 42 -14z m-548 -2 c-12 -8 -72 -4 -72 4 0 2 19 4 43 4 25 0 37 -4 29 -8z"/>
<path d="M5949 4541 c-26 -4 -55 -13 -65 -21 -47 -38 -54 -45 -54 -56 0 -6 -7
-18 -16 -25 -25 -21 -16 -139 14 -170 12 -13 33 -36 46 -51 23 -26 31 -28 99
-28 54 0 78 4 87 15 7 8 17 15 22 15 26 0 68 67 68 108 0 24 0 25 -20 7 -11
-10 -20 -28 -20 -39 0 -24 -32 -56 -55 -56 -19 0 -19 19 0 26 28 11 17 34 -17
35 -63 1 -101 22 -111 60 -5 19 -15 41 -23 50 -21 23 -18 49 6 49 13 0 22 -9
26 -25 8 -32 20 -32 36 3 12 23 19 27 55 25 35 -1 42 2 52 24 11 24 10 25 -11
18 -13 -4 -40 -9 -61 -12 -20 -3 -40 -9 -43 -14 -6 -11 -24 -12 -24 -1 1 21
23 36 62 41 23 3 42 11 41 16 -3 13 -35 15 -94 6z m-77 -186 c3 -14 1 -28 -3
-31 -5 -3 -9 9 -9 25 0 38 6 40 12 6z m65 -109 c-4 -9 -14 -12 -26 -9 -21 5
-30 23 -12 23 5 0 13 10 17 23 l7 22 10 -22 c5 -12 7 -29 4 -37z m86 -16 c20
-1 21 -1 4 -11 -22 -13 -71 -3 -61 12 3 6 13 8 21 5 8 -3 24 -6 36 -6z"/>
<path d="M4899 4515 c-13 -13 -29 -25 -36 -25 -6 0 -15 -10 -19 -22 -3 -12
-13 -28 -20 -36 -8 -7 -14 -22 -14 -33 0 -11 -6 -28 -12 -39 -10 -16 -10 -22
-1 -28 6 -4 15 -20 19 -36 4 -16 25 -46 47 -67 37 -37 43 -39 102 -39 l62 0 0
96 c0 85 -3 97 -21 110 -11 8 -16 14 -11 14 6 0 4 4 -4 9 -11 7 -7 16 20 43
33 32 34 33 37 10 2 -13 10 -26 18 -29 8 -3 14 -9 14 -13 0 -5 5 -21 11 -37 9
-25 12 -26 20 -10 6 9 14 17 19 17 18 0 10 -40 -15 -86 -14 -25 -25 -54 -25
-64 0 -13 -7 -20 -20 -20 -11 0 -20 -4 -20 -10 0 -20 26 -9 68 30 40 38 42 41
42 100 0 33 -4 60 -9 60 -5 0 -12 12 -16 28 -8 34 -53 82 -76 82 -10 0 -21 5
-24 10 -3 6 -30 10 -60 10 -43 0 -57 -4 -76 -25z m52 -102 c2 -28 -1 -46 -13
-86 -10 -34 -9 -40 12 -62 13 -14 32 -25 42 -25 10 0 18 -7 18 -15 0 -9 -10
-15 -26 -15 -14 0 -32 7 -40 15 -9 8 -24 15 -35 15 -14 0 -19 7 -19 27 0 14
-3 23 -7 20 -3 -4 -15 7 -25 24 -16 26 -17 36 -7 66 11 35 35 51 77 52 14 1
22 -5 23 -16z"/>
<path d="M8538 11443 c6 -2 18 -2 25 0 6 3 1 5 -13 5 -14 0 -19 -2 -12 -5z"/>
<path d="M2235 11390 c-16 -7 -13 -9 17 -9 20 -1 40 4 43 9 7 12 -32 12 -60 0z"/>
<path d="M2125 11360 c-4 -6 8 -10 29 -10 19 0 38 5 41 10 4 6 -8 10 -29 10
-19 0 -38 -4 -41 -10z"/>
<path d="M8990 11330 c0 -9 11 -12 45 -12 28 0 35 2 35 12 0 6 -18 10 -40 10
-22 0 -40 -4 -40 -10z"/>
<path d="M9468 11148 c9 -9 15 -9 24 0 9 9 7 12 -12 12 -19 0 -21 -3 -12 -12z"/>
</g>
</svg>
